<?xml version="1.0" encoding="UTF-8"?>
<svg id="Layer_2" data-name="Layer 2" xmlns="http://www.w3.org/2000/svg" viewBox="0 0 396.87 89.71">
  <defs>
    <style>
      .cls-1 {
        fill: #3a3745;
        stroke-width: 0px;
      }
    </style>
  </defs>
  <g id="Layer_1-2" data-name="Layer 1">
    <g>
      <path class="cls-1" d="M72.9,79.22c-.04,3.2-.55,5.35-1.52,6.45-.98,1.09-2.25,1.64-3.81,1.64s-3.21-.51-4.83-1.52c-1.62-1.02-2.35-3.16-2.2-6.45l1.46-35.1c.12-2.34-.57-3.52-2.05-3.52-1.21,0-2.23.94-3.05,2.81l-9.61,22.44c-1.76,4.1-3.25,7.07-4.48,8.91s-2.32,3-3.28,3.49c-.96.49-1.89.73-2.78.73-1.64,0-3.03-.62-4.16-1.88-1.13-1.25-2.19-3.16-3.16-5.74l-11.84-31.35c-.66-1.72-1.56-2.58-2.7-2.58-1.64,0-2.44,1.33-2.4,3.98l1,34.28c.08,2.97-.2,5.19-.82,6.65-.63,1.46-1.45,2.44-2.46,2.93-1.02.49-2.07.73-3.16.73-1.02,0-2.09-.25-3.22-.76-1.13-.51-2.07-1.51-2.81-3.02-.74-1.5-1.07-3.72-1-6.65L1.77,14.06c.12-3.75.44-6.59.97-8.53s1.3-3.24,2.31-3.93c1.02-.68,2.27-1.03,3.75-1.03,2.11,0,4.01.67,5.71,2.02s3.04,3.47,4.01,6.36l14.77,43.18c.94,2.77,2.34,4.16,4.22,4.16.78,0,1.46-.29,2.05-.88s1.15-1.62,1.7-3.11l15.53-40.66c1.72-4.41,3.3-7.27,4.75-8.55,1.44-1.29,3.07-1.93,4.86-1.93,1.25,0,2.46.28,3.63.85s2.13,1.73,2.87,3.49c.74,1.76,1.07,4.39,1,7.91l-1,65.8Z"/>
      <path class="cls-1" d="M123.53,36.21c1.33,4.26,1.84,10.1,1.52,17.52l-.47,11.31c-.12,2.5.05,4.61.5,6.33.45,1.72.91,3.28,1.38,4.69.39,1.09.73,2.17,1.03,3.22s.44,2.19.44,3.4c0,1.45-.53,2.74-1.58,3.9s-2.5,1.73-4.34,1.73c-1.33,0-2.54-.37-3.63-1.11-1.09-.74-2.15-2.07-3.16-3.98-.74-1.45-1.5-2.17-2.29-2.17s-1.54.64-2.4,1.93c-1.33,2.03-2.97,3.66-4.92,4.89-1.95,1.23-4.65,1.85-8.09,1.85-4.96,0-8.98-1.86-12.07-5.57-3.09-3.71-4.63-9.28-4.63-16.7v-.35c0-4.06.82-7.56,2.46-10.49s3.81-5.2,6.5-6.8,5.62-2.4,8.79-2.4c3.44,0,6.33,1.11,8.67,3.34,1.64,1.56,3.07,2.03,4.28,1.41.9-.47,1.35-2.3,1.35-5.51v-.35c0-3.12-.76-5.42-2.29-6.88s-3.67-2.2-6.45-2.2c-3.01,0-5.62.46-7.82,1.38-2.21.92-4.25,1.38-6.12,1.38-1.25,0-2.34-.45-3.28-1.35s-1.41-2.19-1.41-3.87c0-2.19.67-3.91,2.02-5.16s3.25-2.32,5.71-3.22c1.64-.59,3.44-1.06,5.39-1.44,1.95-.37,3.98-.56,6.09-.56,5,0,9.05.91,12.16,2.72s5.32,4.85,6.65,9.11ZM109.67,59.79c-1.5-1.23-3.6-1.94-6.3-2.14-3.67-.31-6.41.41-8.2,2.17-1.8,1.76-2.7,4.3-2.7,7.62v.59c0,3.12.72,5.55,2.17,7.27,1.44,1.72,3.73,2.58,6.86,2.58s5.5-.94,7.47-2.81c1.97-1.88,2.96-4.59,2.96-8.14v-.94c0-2.89-.75-4.95-2.26-6.18Z"/>
      <path class="cls-1" d="M134.54,33.93c-.04-2.81.43-4.8,1.41-5.98.98-1.17,2.21-1.76,3.69-1.76,1.99,0,3.38,1.02,4.16,3.05l.18.47c.74,1.91,1.8,2.87,3.16,2.87,1.52,0,2.85-1,3.98-2.99,1.99-3.52,4.96-5.27,8.91-5.27,2.58,0,4.37.65,5.39,1.96,1.02,1.31,1.52,2.86,1.52,4.66,0,3.79-2.48,6.13-7.44,7.03-3.63.62-6.42,1.48-8.35,2.58s-3.22,2.84-3.87,5.24-.83,5.93-.56,10.58l1.29,21.33c.43,6.45-1.84,9.67-6.8,9.67-1.8,0-3.26-.64-4.39-1.93-1.13-1.29-1.72-3.28-1.76-5.98l-.53-45.53Z"/>
      <path class="cls-1" d="M169.11,11.84c-.08-4.65.57-7.78,1.93-9.4,1.37-1.62,3.08-2.43,5.16-2.43,1.95,0,3.54.74,4.75,2.23,1.21,1.48,1.89,4.2,2.05,8.14.08,2.34.06,5-.06,7.97s-.25,5.98-.41,9.02c-.16,2.46-.28,4.88-.38,7.27-.1,2.38-.15,4.59-.15,6.62s.34,3.44,1.03,4.22c.68.78,1.53,1.17,2.55,1.17,1.52,0,3.16-1,4.92-2.99,1.37-1.6,2.52-3.4,3.46-5.39s2.34-4.51,4.22-7.56c.94-1.56,2.01-2.81,3.22-3.75,1.21-.94,2.58-1.41,4.1-1.41,1.44,0,2.62.48,3.52,1.44.9.96,1.35,2.22,1.35,3.78,0,1.8-.62,3.69-1.88,5.68-1.8,2.89-3.59,5.17-5.39,6.83-1.8,1.66-3.63,3.62-5.51,5.89-.86,1.05-1.47,2.1-1.85,3.13-.37,1.04-.56,2.08-.56,3.13s.13,2.13.38,3.11c.25.98.75,2.09,1.49,3.34,1.09,1.84,2.72,3.78,4.89,5.83s4.78,4.7,7.82,7.94c1.8,1.91,2.7,3.98,2.7,6.21,0,1.33-.4,2.47-1.2,3.43-.8.96-1.94,1.44-3.43,1.44-1.02,0-2.16-.26-3.43-.79-1.27-.53-2.43-1.34-3.49-2.43-1.91-2.03-3.73-4.15-5.45-6.36-1.72-2.21-3.4-4.5-5.04-6.88-1.56-2.34-2.73-3.98-3.52-4.92-.78-.94-1.5-1.41-2.17-1.41-1.02,0-1.63.62-1.85,1.88-.21,1.25-.26,3.85-.15,7.79l.18,6.74c.08,1.91-.36,3.6-1.32,5.07-.96,1.46-2.55,2.2-4.78,2.2-1.41,0-2.62-.44-3.63-1.32-1.02-.88-1.8-2.55-2.34-5.01-.55-2.46-.86-6.09-.94-10.9l-.82-58.54Z"/>
      <path class="cls-1" d="M238.25,87.95c-5.35,0-9.92-.96-13.71-2.87-3.79-1.91-6.69-5.09-8.7-9.52-2.01-4.43-3.02-10.38-3.02-17.84v-3.75c0-6.72,1.03-12.23,3.08-16.52s4.82-7.47,8.32-9.52c3.5-2.05,7.41-3.08,11.75-3.08,3.91,0,7.44.96,10.61,2.87s5.69,4.95,7.59,9.11c1.89,4.16,2.84,9.6,2.84,16.32,0,5.31-2.73,8.03-8.2,8.14l-15.18.35c-2.5.04-4.31.46-5.42,1.26s-1.67,2.1-1.67,3.9c0,3.12.87,5.55,2.61,7.27,1.74,1.72,4.97,2.58,9.7,2.58,3.08,0,5.51-.38,7.27-1.14s3.42-1.14,4.98-1.14c1.44,0,2.55.46,3.31,1.38s1.14,2.1,1.14,3.54-.61,2.84-1.82,4.19c-1.21,1.35-3.11,2.41-5.68,3.19-2.66.86-5.92,1.29-9.79,1.29ZM245.28,50.86c.66-.55,1-1.66,1-3.34v-.23c0-3.55-.79-6.29-2.37-8.2s-4.03-2.87-7.35-2.87c-3.59,0-6.23.94-7.91,2.81-1.68,1.88-2.6,4.02-2.75,6.45-.12,1.99.21,3.39.97,4.19s2,1.24,3.72,1.32l10.9.59c1.88.08,3.14-.16,3.81-.7Z"/>
      <path class="cls-1" d="M281.96,65.68c-.04,3.55.44,6.01,1.44,7.35s2.8,2.2,5.42,2.55c2.46.35,4.18,1.04,5.16,2.05.98,1.02,1.46,2.32,1.46,3.93s-.7,3.11-2.11,4.28-3.71,1.76-6.91,1.76c-6.37,0-10.92-1.7-13.65-5.1-2.73-3.4-3.91-8.79-3.52-16.17l1.23-23.38c.16-2.7-.17-4.37-.97-5.01-.8-.64-2.35-.97-4.66-.97h-1.11c-3.98,0-5.98-1.56-5.98-4.69,0-1.37.42-2.51,1.26-3.43s2.49-1.59,4.95-2.02l.76-.12c1.8-.31,3.03-.85,3.69-1.61.66-.76,1.19-2.02,1.58-3.78l.47-2.17c1.02-4.38,3.16-6.56,6.45-6.56,1.84,0,3.11.52,3.84,1.55.72,1.04,1.08,2.71,1.08,5.01v.88c0,2.38.32,4,.97,4.86s1.88,1.35,3.72,1.46l3.52.23c2.26.2,3.87.75,4.8,1.67s1.41,2.04,1.41,3.37c0,2.89-1.99,4.45-5.98,4.69l-2.17.12c-2.46.16-4.04.69-4.75,1.61s-1.08,2.31-1.11,4.19l-.29,23.44Z"/>
      <path class="cls-1" d="M312.55,4.45c1.64,1.48,2.46,3.34,2.46,5.57s-.79,3.96-2.37,5.07-3.47,1.79-5.65,2.02c-2.7.27-4.65-.21-5.86-1.44-1.21-1.23-1.82-3.04-1.82-5.42s.71-4.41,2.14-5.86c1.43-1.45,3.19-2.17,5.3-2.17,2.23,0,4.16.74,5.8,2.23ZM300.48,34.16c-.08-3.67.49-6.12,1.7-7.35,1.21-1.23,2.91-1.85,5.1-1.85,1.95,0,3.55.62,4.8,1.88,1.25,1.25,1.84,3.73,1.76,7.44l-1.29,46.82c-.12,4.34-1.95,6.5-5.51,6.5s-5.33-2.17-5.45-6.5l-1.11-46.93Z"/>
      <path class="cls-1" d="M324.39,31.64c.08-2.66.56-4.55,1.44-5.68s2-1.7,3.37-1.7c.9,0,1.7.28,2.4.85s1.15,1.65,1.35,3.25l.12.88c.2,1.29.53,2.19,1,2.7s1.07.76,1.82.76c2.03,0,3.69-1.6,4.98-4.8,1.02-2.42,2.31-4.3,3.9-5.62s3.66-1.99,6.24-1.99c2.81,0,5.03.85,6.65,2.55,1.62,1.7,2.8,3.86,3.54,6.47.51,1.68,1.03,2.83,1.58,3.46.55.62,1.31.94,2.29.94s1.75-.28,2.43-.85c.68-.57,1.46-1.59,2.31-3.08,1.44-2.42,3.01-4.32,4.69-5.68,1.68-1.37,3.79-2.05,6.33-2.05,5.51,0,9.58,2.14,12.22,6.42s3.92,9.68,3.84,16.2l-.64,34.51c-.04,2.85-.67,4.82-1.9,5.92s-2.63,1.64-4.19,1.64c-1.64,0-3.12-.62-4.42-1.88-1.31-1.25-1.87-3.73-1.67-7.44l1.64-28.95c.2-3.91-.44-6.72-1.9-8.44s-3.54-2.58-6.24-2.58c-2.07,0-3.98.45-5.71,1.35-1.74.9-3.12,2.46-4.13,4.69-1.02,2.23-1.49,5.37-1.41,9.43l.59,26.31c.12,5.43-1.76,8.14-5.62,8.14-2.23,0-3.82-.67-4.78-2.02-.96-1.35-1.47-3.41-1.55-6.18l-.53-30.12c-.04-3.91-.62-6.62-1.76-8.14-1.13-1.52-3.07-2.29-5.8-2.29-3.2,0-5.66,1.22-7.38,3.66-1.72,2.44-2.87,6.98-3.46,13.62l-2.23,25.9c-.16,1.91-.83,3.32-2.02,4.22-1.19.9-2.59,1.35-4.19,1.35s-2.79-.55-3.69-1.64c-.9-1.09-1.31-2.6-1.23-4.51l1.76-49.57Z"/>
    </g>
  </g>
</svg>